<svg xmlns="http://www.w3.org/2000/svg" viewBox="0 0 1600 1200">
  <defs>
    <linearGradient id="alley" x1="0%" y1="0%" x2="0%" y2="100%">
      <stop offset="0%" stop-color="#1a1a28"/>
      <stop offset="100%" stop-color="#12121c"/>
    </linearGradient>
  </defs>
  <rect width="1600" height="1200" fill="url(#alley)"/>
  <polygon points="0,0 500,0 650,1200 0,1200" fill="#0d0d14"/>
  <polygon points="1600,0 1100,0 950,1200 1600,1200" fill="#0d0d14"/>
  <rect x="520" y="800" width="560" height="400" fill="#1a1a26"/>
  <rect x="50" y="200" width="80" height="120" fill="#ff4757" opacity="0.7"/>
  <rect x="180" y="350" width="60" height="80" fill="#ffa502" opacity="0.6"/>
  <rect x="1400" y="250" width="70" height="100" fill="#ff6b81" opacity="0.7"/>
  <rect x="1320" y="400" width="50" height="70" fill="#70a1ff" opacity="0.6"/>
  <rect x="700" y="300" width="200" height="30" fill="#ff4757" opacity="0.5"/>
  <rect x="750" y="380" width="100" height="20" fill="#ffa502" opacity="0.4"/>
  <ellipse cx="800" cy="1000" rx="250" ry="80" fill="#2a3a5a" opacity="0.4"/>
  <path d="M600 500 Q650 600 620 750" stroke="#5a6a8a" stroke-width="3" fill="none" opacity="0.3"/>
  <path d="M1000 520 Q950 620 980 760" stroke="#5a6a8a" stroke-width="3" fill="none" opacity="0.3"/>
  <text x="120" y="1080" fill="#8a9ab8" font-family="Georgia, serif" font-size="88">Tokyo Alley</text>
</svg>
