<svg xmlns="http://www.w3.org/2000/svg" viewBox="0 0 1600 1200">
  <defs>
    <linearGradient id="night" x1="0%" y1="0%" x2="0%" y2="100%">
      <stop offset="0%" stop-color="#1a1a2e"/>
      <stop offset="100%" stop-color="#16213e"/>
    </linearGradient>
  </defs>
  <rect width="1600" height="1200" fill="url(#night)"/>
  <rect x="0" y="700" width="1600" height="500" fill="#0a0a12"/>
  <rect x="100" y="150" width="200" height="550" fill="#252538"/>
  <rect x="350" y="200" width="180" height="500" fill="#1f1f30"/>
  <rect x="1200" y="180" width="220" height="520" fill="#282840"/>
  <rect x="1000" y="250" width="160" height="450" fill="#1c1c2d"/>
  <rect x="120" y="200" width="40" height="60" fill="#ff6b9d" opacity="0.8"/>
  <rect x="380" y="280" width="50" height="40" fill="#4ecdc4" opacity="0.7"/>
  <rect x="1220" y="220" width="60" height="80" fill="#ffe66d" opacity="0.6"/>
  <rect x="1030" y="300" width="45" height="50" fill="#ff6b9d" opacity="0.7"/>
  <ellipse cx="800" cy="950" rx="600" ry="150" fill="#1e3a5f" opacity="0.5"/>
  <line x1="200" y1="750" x2="200" y2="1100" stroke="#3a5068" stroke-width="3" opacity="0.6"/>
  <line x1="600" y1="720" x2="600" y2="1150" stroke="#3a5068" stroke-width="3" opacity="0.6"/>
  <line x1="1000" y1="730" x2="1000" y2="1120" stroke="#3a5068" stroke-width="3" opacity="0.6"/>
  <line x1="1400" y1="740" x2="1400" y2="1100" stroke="#3a5068" stroke-width="3" opacity="0.6"/>
  <text x="120" y="1080" fill="#a8c0d8" font-family="Georgia, serif" font-size="88">Tokyo After Rain</text>
</svg>
